<?xml version="1.0" encoding="UTF-8"?>
<svg width="800" height="600" viewBox="0 0 800 600" fill="none" xmlns="http://www.w3.org/2000/svg" role="img" aria-label="Student chatting with a career counselor">
  <defs>
    <linearGradient id="bg" x1="0" y1="0" x2="800" y2="600" gradientUnits="userSpaceOnUse">
      <stop stop-color="#2563eb"/>
      <stop offset="1" stop-color="#1e40af"/>
    </linearGradient>
    <linearGradient id="card" x1="0" y1="0" x2="0" y2="1">
      <stop stop-color="#ffffff"/>
      <stop offset="1" stop-color="#f8fafc"/>
    </linearGradient>
    <clipPath id="clipRounded">
      <rect rx="16" ry="16" x="0" y="0" width="760" height="420"/>
    </clipPath>
  </defs>
  <!-- Decorative circles -->
  <circle cx="740" cy="80" r="60" fill="rgba(255,255,255,0.06)"/>
  <circle cx="60" cy="520" r="40" fill="rgba(255,255,255,0.06)"/>
  
  <!-- Desk area card -->
  <g transform="translate(20,80)">
    <rect width="760" height="420" fill="url(#card)" stroke="#e5e7eb"/>
    <g clip-path="url(#clipRounded)">
      <!-- Left: counselor -->
      <g transform="translate(60,120)">
        <circle cx="70" cy="40" r="24" fill="#f1f5f9" stroke="#cbd5e1"/>
        <rect x="30" y="70" width="80" height="70" rx="16" fill="#e2e8f0"/>
        <rect x="0" y="150" width="140" height="12" rx="6" fill="#cbd5e1"/>
        <rect x="0" y="170" width="120" height="10" rx="5" fill="#e5e7eb"/>
      </g>
      <!-- Center: student with laptop -->
      <g transform="translate(300,90)">
        <circle cx="60" cy="40" r="26" fill="#dbeafe" stroke="#93c5fd"/>
        <rect x="20" y="72" width="100" height="60" rx="12" fill="#1d4ed8"/>
        <rect x="10" y="140" width="120" height="10" rx="5" fill="#dbeafe"/>
        <rect x="0" y="160" width="140" height="10" rx="5" fill="#e5e7eb"/>
        <rect x="24" y="84" width="92" height="8" rx="4" fill="#60a5fa"/>
      </g>
      <!-- Right: chat bubbles -->
      <g transform="translate(560,80)">
        <rect x="0" y="0" width="160" height="60" rx="12" fill="#dcfce7" stroke="#bbf7d0"/>
        <rect x="-16" y="80" width="160" height="60" rx="12" fill="#eef2ff" stroke="#c7d2fe"/>
        <rect x="0" y="8" width="120" height="8" rx="4" fill="#16a34a" opacity="0.6"/>
        <rect x="0" y="24" width="100" height="8" rx="4" fill="#16a34a" opacity="0.4"/>
        <rect x="-8" y="88" width="120" height="8" rx="4" fill="#6366f1" opacity="0.6"/>
        <rect x="-8" y="104" width="96" height="8" rx="4" fill="#6366f1" opacity="0.4"/>
      </g>
    </g>
  </g>
  <!-- Title strip bottom -->
  <rect x="260" y="540" width="280" height="12" rx="6" fill="#bfdbfe"/>
  <rect x="290" y="560" width="220" height="10" rx="5" fill="#e5e7eb"/>
</svg>
